# AST/ASF file generated using VICON BodyLanguage
# -----------------------------------------------
:version 1.10
:name VICON
:units
  mass 1.0
  length 0.45
  angle deg
:documentation
   .ast/.asf automatically generated from VICON data using
   VICON BodyBuilder and BodyLanguage model FoxedUp or BRILLIANT.MOD
:root
   order TX TY TZ RX RY RZ
   axis XYZ
   position 0 0 0  
   orientation 0 0 0 
:bonedata
  begin
     id 1 
     name lhipjoint
     direction 0.612567 -0.751349 0.245431 
     length 2.42285 
     axis 0 0 0  XYZ
  end
  begin
     id 2 
     name lfemur
     direction 0.34202 -0.939693 0  
     length 7.11304  
     axis 0 0 20  XYZ
    dof rx ry rz
    limits (-160.0 20.0)
           (-70.0 70.0)
           (-60.0 70.0)
  end
  begin
     id 3 
     name ltibia
     direction 0.34202 -0.939693 0   
     length 7.84529   
     axis 0 0 20   XYZ
    dof rx
    limits (-10.0 170.0)
  end
  begin
     id 4 
     name lfoot
     direction 0.0779239 -0.214094 0.9737   
     length 1.97176   
     axis -90 7.62852e-016 20   XYZ
    dof rx rz
    limits (-45.0 90.0)
           (-70.0 20.0)
  end
  begin
     id 5 
     name ltoes
     direction 1.53565e-011 -4.21709e-011 1   
     length 0.993197   
     axis -90 7.62852e-016 20   XYZ
    dof rx
    limits (-90.0 20.0)
  end
  begin
     id 6 
     name rhipjoint
     direction -0.665722 -0.709315 0.231701   
     length 2.56642  
     axis 0 0 0  XYZ 
  end
  begin
     id 7 
     name rfemur
     direction -0.34202 -0.939693 0   
     length 7.32108   
     axis 0 0 -20   XYZ
    dof rx ry rz
    limits (-160.0 20.0)
           (-70.0 70.0)
           (-70.0 60.0)
  end
  begin
     id 8 
     name rtibia
     direction -0.34202 -0.939693 0   
     length 7.81254   
     axis 0 0 -20   XYZ
    dof rx
    limits (-10.0 170.0)
 end
 begin
     id 9 
     name rfoot
     direction -0.0832806 -0.228812 0.969902   
     length 2.08278  
     axis -90 -7.62852e-016 -20   XYZ
    dof rx rz
    limits (-45.0 90.0)
           (-20.0 70.0)
  end
  begin
     id 10 
     name rtoes
     direction -1.53589e-011 -4.22086e-011 1   
     length 1.04609   
     axis -90 -7.62852e-016 -20   XYZ
    dof rx
    limits (-90.0 20.0)
  end
  begin
     id 11 
     name lowerback
     direction -0.00506013 0.988403 -0.151766   
     length 2.01978   
     axis 0 0 0   XYZ
    dof rx ry rz
    limits (-20.0 45.0)
           (-30.0 30.0)
           (-30.0 30.0)
  end
  begin
     id 12 
     name upperback
     direction -0.00836389 0.99968 0.0238859   
     length 2.01276   
     axis 0 0 0   XYZ
    dof rx ry rz
    limits (-20.0 45.0)
           (-30.0 30.0)
           (-30.0 30.0)
  end
  begin
     id 13 
     name thorax
     direction -0.00684136 0.995386 0.0957043   
     length 2.07303   
     axis 0 0 0   XYZ
    dof rx ry rz
    limits (-20.0 45.0)
           (-30.0 30.0)
           (-30.0 30.0)
  end
  begin
     id 14 
     name lowerneck
     direction -0.0161045 0.999661 0.0204485   
     length 1.91243   
     axis 0 0 0   XYZ
    dof rx ry rz
    limits (-20.0 45.0)
           (-30.0 30.0)
           (-30.0 30.0)
  end
  begin
     id 15 
     name upperneck
     direction 0.0553583 0.990946 -0.122319   
     length 1.91574   
     axis 0 0 0   XYZ
    dof rx ry rz
    limits (-20.0 45.0)
           (-30.0 30.0)
           (-30.0 30.0)
  end
  begin
     id 16
     name head
     direction 0.0180273 0.998839 -0.0446756  
     length 1.92693  
     axis 0 0 0   XYZ
    dof rx ry rz
    limits (-20.0 45.0)
           (-30.0 30.0)
           (-30.0 30.0)
  end
  begin
     id 17 
     name lclavicle
     direction 0.945646 0.319323 -0.0615358  
     length 4.0076  
     axis 0 0 0   XYZ
    dof ry rz
    limits (-20.0 10.0)
           (0.0 20.0)
  end
  begin
     id 18 
     name lhumerus
     direction 1 -4.48967e-011 -2.79996e-027   
     length 5.64147   
     axis 180 -30 -90   XYZ
    dof rx ry rz
    limits (-60.0 90.0)
           (-90.0 90.0)
           (-90.0 90.0)
  end
  begin
     id 19
     name lradius
     direction 1 -4.48976e-011 -9.5122e-027   
     length 2.86444   
     axis 180 -30 -90   XYZ
    dof rx
    limits (-10.0 170.0)
  end
  begin
     id 20
     name lwrist
     direction 1 -4.48983e-011 -1.24047e-026   
     length 1.43222   
     axis 9.05591e-015 90 90   XYZ
    dof ry
    limits (-180.0 0.0)
 end
  begin
     id 21 
     name lhand
     direction 1 -4.4892e-011 -2.48094e-026   
     length 0.722123   
     axis 1.58305e-014 90 90   XYZ
    dof rx rz
    limits (-90.0 90.0)
           (-45.0 45.0)
  end
  begin
     id 22 
     name lfingers
     direction 1 -4.48895e-011 -4.96187e-026   
     length 0.582194   
     axis 3.1661e-014 90 90   XYZ
    dof rx
    limits (0.0 90.0)
  end
  begin
     id 23
     name lthumb
     direction 0.707107 -6.34961e-011 0.707107   
     length 0.835918   
     axis -90 45 2.85299e-015   XYZ
    dof rx rz
    limits (-45.0 45.0)
           (-45.0 45.0)
  end
  begin
     id 24 
     name rclavicle
     direction -0.932635 0.324218 -0.15835   
     length 3.65819  
     axis 0 0 0   XYZ 
    dof ry rz
    limits (-10.0 20.0)
           (-20.0 0.0)
  end
  begin
     id 25 
     name rhumerus
     direction -1 -4.48965e-011 -4.02296e-027  
     length 5.44729   
     axis 180 30 90   XYZ
    dof rx ry rz
    limits (-90.0 60.0)
           (-90.0 90.0)
           (-90.0 90.0)
  end
  begin
     id 26 
     name rradius
     direction -1 -4.48957e-011 -8.81087e-027   
     length 3.08821   
     axis 180 30 90   XYZ
    dof rx
    limits (-10.0 170.0)
  end
  begin
     id 27 
     name rwrist
     direction -1 -4.49015e-011 -1.24047e-026   
     length 1.5441   
     axis 9.05591e-015 -90 -90   XYZ
    dof ry
    limits (-180.0 0.0)
  end
  begin
     id 28
     name rhand
     direction -1 -4.4891e-011 -2.48094e-026   
     length 0.821049   
     axis 1.58305e-014 -90 -90   XYZ
    dof rx rz
    limits (-90.0 90.0)
           (-45.0 45.0)
  end
  begin
     id 29
     name rfingers
     direction -1 -4.48985e-011 -4.96187e-026   
     length 0.661951   
     axis 3.1661e-014 -90 -90   XYZ
    dof rx
    limits (0.0 90.0)
  end
  begin
     id 30
     name rthumb
     direction -0.707107 -6.34906e-011 0.707107   
     length 0.950433   
     axis -90 -45 -2.85299e-015   XYZ
    dof rx rz
    limits (-45.0 45.0)
           (-45.0 45.0)
  end
:hierarchy
  begin
    root lhipjoint rhipjoint lowerback
    lhipjoint lfemur
    lfemur ltibia
    ltibia lfoot
    lfoot ltoes
    rhipjoint rfemur
    rfemur rtibia
    rtibia rfoot
    rfoot rtoes
    lowerback upperback
    upperback thorax
    thorax lowerneck lclavicle rclavicle
    lowerneck upperneck
    upperneck head
    lclavicle lhumerus
    lhumerus lradius
    lradius lwrist
    lwrist lhand lthumb
    lhand lfingers
    rclavicle rhumerus
    rhumerus rradius
    rradius rwrist
    rwrist rhand rthumb
    rhand rfingers
  end

#!OML:ASF F:\VICON\USERDATA\INSTALL\rory3\rory3.ASF
:FULLY-SPECIFIED
:DEGREES
1
root -5.46396 17.5468 -17.5752 -1.09023 27.395 -3.49926
lowerback 0.686059 0.200631 1.68283
upperback 2.54413 0.292253 -1.48298
thorax 2.24193 0.201171 -2.46282
lowerneck -2.54956 -5.49858 -5.20598
upperneck 13.5204 -7.93566 7.10605
head 4.96004 -3.73799 2.63028
rclavicle 5.46658e-015 -1.90833e-014
rhumerus -32.8592 -10.0994 -85.1573
rradius 30.6755
rwrist 13.9776
rhand -7.74014 8.32182
rfingers 7.12502
rthumb 18.1589 -20.8505
lclavicle 5.46658e-015 -1.90833e-014
lhumerus -26.0162 -3.19477 89.0354
lradius 19.8319
lwrist 26.9236
lhand -12.4942 10.241
lfingers 7.12502
lthumb 13.5808 39.7781
rfemur -26.4824 -6.33631 28.9209
rtibia 21.1928
rfoot -18.9661 9.85219
rtoes -7.74709
lfemur 6.82385 12.9075 -22.3243
ltibia 9.61921
lfoot -18.3651 -0.462415
ltoes -4.68259
2
root -5.44209 17.5402 -17.5341 -1.07398 27.5337 -3.47021
lowerback 0.659581 0.18082 1.64197
upperback 2.54988 0.264514 -1.41742
thorax 2.26047 0.185922 -2.37259
lowerneck -2.53352 -5.51577 -5.3186
upperneck 13.4524 -7.94745 7.10302
head 4.94161 -3.75087 2.64764
rclavicle 7.25564e-015 2.94201e-014
rhumerus -32.7894 -9.9204 -85.135
rradius 30.6745
rwrist 13.8314
rhand -7.7513 8.1957
rfingers 7.12502
rthumb 18.1481 -20.9777
lclavicle 7.25564e-015 2.94201e-014
lhumerus -26.0182 -3.01023 89.0652
lradius 19.7843
lwrist 26.7344
lhand -12.5263 10.313
lfingers 7.12502
lthumb 13.5498 39.8521
rfemur -26.5047 -6.27023 28.9006
rtibia 21.0752
rfoot -18.9113 9.88176
rtoes -7.92293
lfemur 7.02916 12.7699 -22.3286
ltibia 9.50635
lfoot -18.4111 -0.357786
ltoes -5.86258
3
root -5.42197 17.5339 -17.4937 -1.09267 27.7042 -3.39674
lowerback 0.612562 0.14989 1.52933
upperback 2.63683 0.222746 -1.34091
thorax 2.37311 0.163946 -2.23097
lowerneck -2.61914 -5.53951 -5.52606
upperneck 13.4441 -7.97181 7.17922
head 4.96645 -3.76694 2.70067
rclavicle -2.76311e-014 1.27222e-014
rhumerus -32.6015 -9.86803 -85.0677
rradius 30.6424
rwrist 13.816
rhand -7.80399 8.09153
rfingers 7.12502
rthumb 18.0974 -21.0865
lclavicle -2.76311e-014 1.27222e-014
lhumerus -25.9506 -3.15796 89.2388
lradius 19.782
lwrist 26.9473
lhand -12.6035 10.4866
lfingers 7.12502
lthumb 13.4754 40.0307
rfemur -26.5224 -6.17711 28.8138
rtibia 21.0587
rfoot -18.958 9.70579
rtoes -8.50311
lfemur 7.44863 12.6034 -22.3409
ltibia 9.09326
lfoot -18.2758 -0.19973
ltoes -6.59748
4
root -5.3984 17.5271 -17.453 -1.09635 27.8693 -3.35472
lowerback 0.565001 0.137649 1.56868
upperback 2.68688 0.205393 -1.31403
thorax 2.45065 0.157164 -2.22563
lowerneck -2.64491 -5.58386 -5.68768
upperneck 13.4006 -8.03042 7.27846
head 4.9718 -3.79802 2.75321
rclavicle 2.38542e-014 1.66979e-014
rhumerus -32.5445 -9.9501 -84.9866
rradius 30.7546
rwrist 13.8344
rhand -7.67535 8.12151
rfingers 7.12502
rthumb 18.2212 -21.0451
lclavicle 2.38542e-014 1.66979e-014
lhumerus -25.9525 -3.20487 89.3252
lradius 19.8236
lwrist 27.1619
lhand -12.555 10.4703
lfingers 7.12502
lthumb 13.5221 40.0113
rfemur -26.5556 -6.07422 28.7391
rtibia 21.0199
rfoot -19.0314 9.55529
rtoes -8.53077
lfemur 7.83322 12.4451 -22.3552
ltibia 8.73011
lfoot -18.2215 -0.167373
ltoes -6.48306
5
root -5.37334 17.5205 -17.4096 -1.00921 28.0201 -3.16279
lowerback 0.517124 0.149251 1.50935
upperback 2.71139 0.222624 -1.3779
thorax 2.50377 0.16617 -2.2577
lowerneck -2.55398 -5.63535 -5.68578
upperneck 13.1974 -8.10306 7.35734
head 4.902 -3.83421 2.77658
rclavicle 2.21645e-014 -1.35174e-014
rhumerus -32.5567 -9.96113 -84.9904
rradius 30.8808
rwrist 13.7937
rhand -7.63559 8.19876
rfingers 7.12502
rthumb 18.2594 -20.9642
lclavicle 2.21645e-014 -1.35174e-014
lhumerus -25.9744 -3.31273 89.3721
lradius 19.8827
lwrist 27.5199
lhand -12.7101 10.3085
lfingers 7.12502
lthumb 13.3726 39.8594
rfemur -26.6008 -5.84212 28.4627
rtibia 21.0003
rfoot -19.0906 9.49259
rtoes -7.95713
lfemur 8.23604 12.307 -22.5221
ltibia 8.30769
lfoot -18.1426 -0.219251
ltoes -6.09086
6
root -5.35093 17.513 -17.3654 -0.990413 28.1321 -3.03182
lowerback 0.559295 0.149611 1.45214
upperback 2.73576 0.225609 -1.43126
thorax 2.50529 0.167452 -2.28054
lowerneck -2.5658 -5.66228 -5.53961
upperneck 13.0971 -8.13602 7.29739
head 4.86728 -3.84797 2.73261
rclavicle -6.55989e-015 1.51076e-014
rhumerus -32.5205 -9.96101 -85.0477
rradius 30.947
rwrist 13.7056
rhand -7.54918 8.12693
rfingers 7.12502
rthumb 18.3426 -21.0283
lclavicle -6.55989e-015 1.51076e-014
lhumerus -25.8842 -3.29818 89.3326
lradius 19.7715
lwrist 27.5439
lhand -12.8043 10.2833
lfingers 7.12502
lthumb 13.2818 39.84
rfemur -26.6038 -5.67295 28.291
rtibia 20.9857
rfoot -19.1196 9.40826
rtoes -8.25044
lfemur 8.72642 12.2021 -22.5921
ltibia 7.81922
lfoot -18.0265 -0.12913
ltoes -6.81884
7
root -5.33045 17.5078 -17.3194 -0.99285 28.2136 -2.96107
lowerback 0.595673 0.152371 1.44517
upperback 2.74006 0.230159 -1.44726
thorax 2.48954 0.16971 -2.29309
lowerneck -2.5979 -5.68929 -5.54241
upperneck 13.0929 -8.16965 7.2857
head 4.8734 -3.86455 2.72633
rclavicle 2.24627e-014 9.54166e-015
rhumerus -32.4979 -9.98501 -85.0808
rradius 30.9518
rwrist 13.7036
rhand -7.63632 8.02533
rfingers 7.12502
rthumb 18.2587 -21.1377
lclavicle 2.24627e-014 9.54166e-015
lhumerus -25.7892 -2.9131 89.1903
lradius 19.5856
lwrist 26.9388
lhand -12.6218 10.4374
lfingers 7.12502
lthumb 13.4578 39.9826
rfemur -26.6199 -5.48215 28.1733
rtibia 21.0122
rfoot -19.0357 9.54118
rtoes -7.44033
lfemur 9.27072 12.1226 -22.5875
ltibia 7.23105
lfoot -17.8604 -0.110267
ltoes -6.82772
8
root -5.30704 17.5002 -17.2732 -0.966592 28.3601 -2.92643
lowerback 0.566563 0.130089 1.49877
upperback 2.74325 0.199386 -1.43418
thorax 2.50787 0.155578 -2.31022
lowerneck -2.60305 -5.71241 -5.64999
upperneck 13.0498 -8.20016 7.356
head 4.87036 -3.8813 2.76355
rclavicle 2.95195e-014 0
rhumerus -32.4272 -10.0389 -85.0506
rradius 30.8738
rwrist 13.7473
rhand -7.64086 8.11743
rfingers 7.12502
rthumb 18.2544 -21.046
lclavicle 2.95195e-014 0
lhumerus -25.7954 -2.52717 89.1272
lradius 19.5311
lwrist 26.5924
lhand -12.6799 10.323
lfingers 7.12502
lthumb 13.4018 39.872
rfemur -26.6791 -5.48607 28.1132
rtibia 21.0392
rfoot -18.8685 9.757
rtoes -6.69996
lfemur 9.74526 11.982 -22.5941
ltibia 6.69975
lfoot -17.7013 -0.0464158
ltoes -6.82711
9
root -5.28189 17.4915 -17.2261 -1.00113 28.4958 -2.92775
lowerback 0.569339 0.144859 1.56082
upperback 2.75344 0.217841 -1.39752
thorax 2.51793 0.165943 -2.30705
lowerneck -2.53623 -5.76594 -5.71658
upperneck 12.977 -8.27043 7.38769
head 4.84563 -3.91961 2.78206
rclavicle -1.33186e-014 -1.11319e-014
rhumerus -32.3853 -10.2285 -84.904
rradius 30.7474
rwrist 13.9087
rhand -7.69353 8.34531
rfingers 7.12502
rthumb 18.2037 -20.8229
lclavicle -1.33186e-014 -1.11319e-014
lhumerus -25.8874 -2.54913 89.2345
lradius 19.6201
lwrist 26.6777
lhand -12.9084 10.1036
lfingers 7.12502
lthumb 13.1815 39.6669
rfemur -26.6416 -5.41936 28.0693
rtibia 21.0105
rfoot -18.8787 9.55668
rtoes -8.03199
lfemur 10.1965 11.8547 -22.5728
ltibia 6.29847
lfoot -17.5697 0.235537
ltoes -8.57872
10
root -5.25977 17.4866 -17.178 -1.01478 28.6369 -2.82599
lowerback 0.630832 0.162583 1.48096
upperback 2.7381 0.242528 -1.38466
thorax 2.46818 0.175676 -2.24861
lowerneck -2.41774 -5.81998 -5.70314
upperneck 12.8918 -8.34306 7.38102
head 4.80375 -3.95868 2.77744
rclavicle -2.69353e-014 -1.03368e-014
rhumerus -32.4293 -10.4337 -84.7574
rradius 30.6906
rwrist 14.1134
rhand -7.71853 8.36998
rfingers 7.12502
rthumb 18.1796 -20.8005
lclavicle -2.69353e-014 -1.03368e-014
lhumerus -25.9608 -2.50618 89.2658
lradius 19.6843
lwrist 26.6118
lhand -12.7186 10.2561
lfingers 7.12502
lthumb 13.3645 39.8075
rfemur -26.5523 -5.24907 27.8965
rtibia 20.9434
rfoot -18.9202 9.23993
rtoes -9.25427
lfemur 10.6012 11.7164 -22.6081
ltibia 5.98674
lfoot -17.4441 0.269441
ltoes -8.85721
11
root -5.23628 17.4816 -17.1299 -0.94499 28.7993 -2.72214
lowerback 0.645473 0.166074 1.44995
upperback 2.68954 0.247217 -1.38609
thorax 2.40993 0.176233 -2.23259
lowerneck -2.35055 -5.85774 -5.7156
upperneck 12.8325 -8.39264 7.38285
head 4.77832 -3.98572 2.77938
rclavicle -2.61402e-014 1.03368e-014
rhumerus -32.4898 -10.3361 -84.74
rradius 30.7004
rwrist 14.0467
rhand -7.84272 8.21232
rfingers 7.12502
rthumb 18.0602 -20.9692
lclavicle -2.61402e-014 1.03368e-014
lhumerus -26.0262 -2.47226 89.2578
lradius 19.7325
lwrist 26.4642
lhand -12.5355 10.6208
lfingers 7.12502
lthumb 13.5409 40.1605
rfemur -26.5307 -4.95509 27.6777
rtibia 20.8392
rfoot -18.9013 9.15555
rtoes -7.97788
lfemur 10.8698 11.5499 -22.6562
ltibia 5.79069
lfoot -17.4129 0.0359721
ltoes -7.20931
12
root -5.21157 17.4723 -17.0807 -0.914188 28.9249 -2.65467
lowerback 0.654392 0.191045 1.49758
upperback 2.67442 0.280352 -1.39532
thorax 2.39138 0.193612 -2.2684
lowerneck -2.33748 -5.89798 -5.71678
upperneck 12.8317 -8.44502 7.36566
head 4.77892 -4.01246 2.77135
rclavicle -3.52843e-014 2.46493e-014
rhumerus -32.5219 -10.3232 -84.727
rradius 30.7305
rwrist 14.0122
rhand -7.96644 8.00192
rfingers 7.12502
rthumb 17.9411 -21.1906
lclavicle -3.52843e-014 2.46493e-014
lhumerus -26.0884 -2.55826 89.2771
lradius 19.8042
lwrist 26.4113
lhand -12.5913 10.6784
lfingers 7.12502
lthumb 13.4871 40.2216
rfemur -26.4527 -4.6925 27.5123
rtibia 20.6798
rfoot -18.7984 9.13184
rtoes -6.432
lfemur 11.0759 11.4198 -22.6732
ltibia 5.80231
lfoot -17.4869 -0.120351
ltoes -6.45215
13
root -5.18906 17.4634 -17.0282 -0.976994 29.0075 -2.66049
lowerback 0.709987 0.200086 1.51419
upperback 2.69622 0.291985 -1.34292
thorax 2.38291 0.1993 -2.22377
lowerneck -2.36102 -5.90869 -5.80757
upperneck 12.8284 -8.458 7.41022
head 4.78847 -4.02009 2.79812
rclavicle 9.83984e-015 6.36111e-015
rhumerus -32.4882 -10.3559 -84.6468
rradius 30.686
rwrist 14.0722
rhand -8.07226 7.95826
rfingers 7.12502
rthumb 17.8393 -21.2435
lclavicle 9.83984e-015 6.36111e-015
lhumerus -26.1164 -2.41501 89.2683
lradius 19.8499
lwrist 26.2799
lhand -12.4228 10.6593
lfingers 7.12502
lthumb 13.6495 40.1918
rfemur -26.3024 -4.50918 27.4579
rtibia 20.5096
rfoot -18.6416 8.9854
rtoes -6.11863
lfemur 11.3322 11.328 -22.5901
ltibia 5.82084
lfoot -17.5169 -0.133219
ltoes -6.59023
14
root -5.16649 17.4582 -16.9753 -1.03077 29.1656 -2.73231
lowerback 0.741939 0.192342 1.57397
upperback 2.69024 0.280042 -1.27185
thorax 2.35809 0.193388 -2.18446
lowerneck -2.3573 -5.92651 -5.8023
upperneck 12.7548 -8.47186 7.35837
head 4.76401 -4.03055 2.78102
rclavicle -3.57812e-014 3.97569e-015
rhumerus -32.4953 -10.4018 -84.543
rradius 30.649
rwrist 14.1257
rhand -8.05785 7.8953
rfingers 7.12502
rthumb 17.8532 -21.3052
lclavicle -3.57812e-014 3.97569e-015
lhumerus -26.1741 -2.37824 89.3198
lradius 19.9156
lwrist 26.337
lhand -12.2965 10.6091
lfingers 7.12502
lthumb 13.7713 40.1334
rfemur -26.2063 -4.47894 27.4852
rtibia 20.3946
rfoot -18.5425 8.81674
rtoes -7.13395
lfemur 11.6212 11.1585 -22.4554
ltibia 5.68951
lfoot -17.5072 -0.124491
ltoes -7.04947
